<svg id="visual" viewBox="0 0 900 200" width="900" height="200" xmlns="http://www.w3.org/2000/svg" xmlns:xlink="http://www.w3.org/1999/xlink" version="1.1"><rect x="0" y="0" width="900" height="200" fill="#141419"></rect><path d="M0 66L113 108L225 73L338 104L450 93L563 77L675 109L788 58L900 82L900 201L788 201L675 201L563 201L450 201L338 201L225 201L113 201L0 201Z" fill="#b9ece0"></path><path d="M0 130L113 92L225 97L338 107L450 124L563 109L675 101L788 96L900 82L900 201L788 201L675 201L563 201L450 201L338 201L225 201L113 201L0 201Z" fill="#85b0b4"></path><path d="M0 116L113 148L225 134L338 136L450 144L563 140L675 134L788 103L900 123L900 201L788 201L675 201L563 201L450 201L338 201L225 201L113 201L0 201Z" fill="#5d7681"></path><path d="M0 149L113 162L225 150L338 145L450 169L563 166L675 166L788 150L900 161L900 201L788 201L675 201L563 201L450 201L338 201L225 201L113 201L0 201Z" fill="#39414b"></path><path d="M0 160L113 182L225 167L338 168L450 169L563 157L675 182L788 184L900 185L900 201L788 201L675 201L563 201L450 201L338 201L225 201L113 201L0 201Z" fill="#141419"></path></svg>