<svg id="visual" viewBox="0 0 900 200" width="900" height="200" xmlns="http://www.w3.org/2000/svg" xmlns:xlink="http://www.w3.org/1999/xlink" version="1.1"><path d="M0 21L56 21L56 29L113 29L113 41L169 41L169 37L225 37L225 11L281 11L281 37L338 37L338 45L394 45L394 45L450 45L450 25L506 25L506 23L563 23L563 25L619 25L619 35L675 35L675 27L731 27L731 43L788 43L788 11L844 11L844 37L900 37L900 35L900 0L900 0L844 0L844 0L788 0L788 0L731 0L731 0L675 0L675 0L619 0L619 0L563 0L563 0L506 0L506 0L450 0L450 0L394 0L394 0L338 0L338 0L281 0L281 0L225 0L225 0L169 0L169 0L113 0L113 0L56 0L56 0L0 0Z" fill="#141419"></path><path d="M0 93L56 93L56 93L113 93L113 97L169 97L169 87L225 87L225 55L281 55L281 65L338 65L338 77L394 77L394 77L450 77L450 75L506 75L506 89L563 89L563 63L619 63L619 75L675 75L675 103L731 103L731 103L788 103L788 61L844 61L844 79L900 79L900 101L900 33L900 35L844 35L844 9L788 9L788 41L731 41L731 25L675 25L675 33L619 33L619 23L563 23L563 21L506 21L506 23L450 23L450 43L394 43L394 43L338 43L338 35L281 35L281 9L225 9L225 35L169 35L169 39L113 39L113 27L56 27L56 19L0 19Z" fill="#1a1b1f"></path><path d="M0 147L56 147L56 121L113 121L113 173L169 173L169 167L225 167L225 129L281 129L281 141L338 141L338 145L394 145L394 157L450 157L450 115L506 115L506 133L563 133L563 131L619 131L619 127L675 127L675 137L731 137L731 141L788 141L788 133L844 133L844 145L900 145L900 151L900 99L900 77L844 77L844 59L788 59L788 101L731 101L731 101L675 101L675 73L619 73L619 61L563 61L563 87L506 87L506 73L450 73L450 75L394 75L394 75L338 75L338 63L281 63L281 53L225 53L225 85L169 85L169 95L113 95L113 91L56 91L56 91L0 91Z" fill="#202125"></path><path d="M0 181L56 181L56 151L113 151L113 185L169 185L169 179L225 179L225 151L281 151L281 151L338 151L338 163L394 163L394 173L450 173L450 153L506 153L506 153L563 153L563 167L619 167L619 161L675 161L675 169L731 169L731 167L788 167L788 165L844 165L844 173L900 173L900 183L900 149L900 143L844 143L844 131L788 131L788 139L731 139L731 135L675 135L675 125L619 125L619 129L563 129L563 131L506 131L506 113L450 113L450 155L394 155L394 143L338 143L338 139L281 139L281 127L225 127L225 165L169 165L169 171L113 171L113 119L56 119L56 145L0 145Z" fill="#26272b"></path><path d="M0 201L56 201L56 201L113 201L113 201L169 201L169 201L225 201L225 201L281 201L281 201L338 201L338 201L394 201L394 201L450 201L450 201L506 201L506 201L563 201L563 201L619 201L619 201L675 201L675 201L731 201L731 201L788 201L788 201L844 201L844 201L900 201L900 201L900 181L900 171L844 171L844 163L788 163L788 165L731 165L731 167L675 167L675 159L619 159L619 165L563 165L563 151L506 151L506 151L450 151L450 171L394 171L394 161L338 161L338 149L281 149L281 149L225 149L225 177L169 177L169 183L113 183L113 149L56 149L56 179L0 179Z" fill="#2d2e32"></path></svg>