<svg id="visual" viewBox="0 0 900 600" width="900" height="600" xmlns="http://www.w3.org/2000/svg" xmlns:xlink="http://www.w3.org/1999/xlink" version="1.1"><rect x="0" y="0" width="900" height="600" fill="#141419"></rect><path d="M0 449L21.5 457.2C43 465.3 86 481.7 128.8 479.3C171.7 477 214.3 456 257.2 454.5C300 453 343 471 385.8 473.5C428.7 476 471.3 463 514.2 466.2C557 469.3 600 488.7 642.8 496C685.7 503.3 728.3 498.7 771.2 492C814 485.3 857 476.7 878.5 472.3L900 468L900 601L878.5 601C857 601 814 601 771.2 601C728.3 601 685.7 601 642.8 601C600 601 557 601 514.2 601C471.3 601 428.7 601 385.8 601C343 601 300 601 257.2 601C214.3 601 171.7 601 128.8 601C86 601 43 601 21.5 601L0 601Z" fill="#b9ece0"></path><path d="M0 477L21.5 486.5C43 496 86 515 128.8 518.7C171.7 522.3 214.3 510.7 257.2 502.2C300 493.7 343 488.3 385.8 487.8C428.7 487.3 471.3 491.7 514.2 502.3C557 513 600 530 642.8 540.2C685.7 550.3 728.3 553.7 771.2 546.2C814 538.7 857 520.3 878.5 511.2L900 502L900 601L878.5 601C857 601 814 601 771.2 601C728.3 601 685.7 601 642.8 601C600 601 557 601 514.2 601C471.3 601 428.7 601 385.8 601C343 601 300 601 257.2 601C214.3 601 171.7 601 128.8 601C86 601 43 601 21.5 601L0 601Z" fill="#6c8690"></path><path d="M0 527L21.5 526C43 525 86 523 128.8 533.2C171.7 543.3 214.3 565.7 257.2 574C300 582.3 343 576.7 385.8 568.8C428.7 561 471.3 551 514.2 544.2C557 537.3 600 533.7 642.8 533.2C685.7 532.7 728.3 535.3 771.2 539.3C814 543.3 857 548.7 878.5 551.3L900 554L900 601L878.5 601C857 601 814 601 771.2 601C728.3 601 685.7 601 642.8 601C600 601 557 601 514.2 601C471.3 601 428.7 601 385.8 601C343 601 300 601 257.2 601C214.3 601 171.7 601 128.8 601C86 601 43 601 21.5 601L0 601Z" fill="#2d2e32"></path></svg>