<svg id="visual" viewBox="0 0 900 100" width="900" height="100" xmlns="http://www.w3.org/2000/svg" xmlns:xlink="http://www.w3.org/1999/xlink" version="1.1"><rect x="0" y="0" width="900" height="100" fill="#141419"></rect><path d="M0 0L16.7 11.2C33.3 22.3 66.7 44.7 100 55.5C133.3 66.3 166.7 65.7 200 58.8C233.3 52 266.7 39 300 35.7C333.3 32.3 366.7 38.7 400 42.7C433.3 46.7 466.7 48.3 500 50C533.3 51.7 566.7 53.3 600 50.5C633.3 47.7 666.7 40.3 700 42.5C733.3 44.7 766.7 56.3 800 52.7C833.3 49 866.7 30 883.3 20.5L900 11L900 101L883.3 101C866.7 101 833.3 101 800 101C766.7 101 733.3 101 700 101C666.7 101 633.3 101 600 101C566.7 101 533.3 101 500 101C466.7 101 433.3 101 400 101C366.7 101 333.3 101 300 101C266.7 101 233.3 101 200 101C166.7 101 133.3 101 100 101C66.7 101 33.3 101 16.7 101L0 101Z" fill="#3d3e43"></path><path d="M0 64L16.7 65.2C33.3 66.3 66.7 68.7 100 67.7C133.3 66.7 166.7 62.3 200 62C233.3 61.7 266.7 65.3 300 66.2C333.3 67 366.7 65 400 63.7C433.3 62.3 466.7 61.7 500 58.5C533.3 55.3 566.7 49.7 600 54.7C633.3 59.7 666.7 75.3 700 82.5C733.3 89.7 766.7 88.3 800 87.7C833.3 87 866.7 87 883.3 87L900 87L900 101L883.3 101C866.7 101 833.3 101 800 101C766.7 101 733.3 101 700 101C666.7 101 633.3 101 600 101C566.7 101 533.3 101 500 101C466.7 101 433.3 101 400 101C366.7 101 333.3 101 300 101C266.7 101 233.3 101 200 101C166.7 101 133.3 101 100 101C66.7 101 33.3 101 16.7 101L0 101Z" fill="#38393d"></path><path d="M0 72L16.7 76.2C33.3 80.3 66.7 88.7 100 89.7C133.3 90.7 166.7 84.3 200 75.7C233.3 67 266.7 56 300 51.5C333.3 47 366.7 49 400 53C433.3 57 466.7 63 500 63.3C533.3 63.7 566.7 58.3 600 63C633.3 67.7 666.7 82.3 700 83.8C733.3 85.3 766.7 73.7 800 66.3C833.3 59 866.7 56 883.3 54.5L900 53L900 101L883.3 101C866.7 101 833.3 101 800 101C766.7 101 733.3 101 700 101C666.7 101 633.3 101 600 101C566.7 101 533.3 101 500 101C466.7 101 433.3 101 400 101C366.7 101 333.3 101 300 101C266.7 101 233.3 101 200 101C166.7 101 133.3 101 100 101C66.7 101 33.3 101 16.7 101L0 101Z" fill="#323337"></path><path d="M0 61L16.7 64.7C33.3 68.3 66.7 75.7 100 77.7C133.3 79.7 166.7 76.3 200 77C233.3 77.7 266.7 82.3 300 82.8C333.3 83.3 366.7 79.7 400 77.2C433.3 74.7 466.7 73.3 500 74.7C533.3 76 566.7 80 600 80C633.3 80 666.7 76 700 72.3C733.3 68.7 766.7 65.3 800 63.8C833.3 62.3 866.7 62.7 883.3 62.8L900 63L900 101L883.3 101C866.7 101 833.3 101 800 101C766.7 101 733.3 101 700 101C666.7 101 633.3 101 600 101C566.7 101 533.3 101 500 101C466.7 101 433.3 101 400 101C366.7 101 333.3 101 300 101C266.7 101 233.3 101 200 101C166.7 101 133.3 101 100 101C66.7 101 33.3 101 16.7 101L0 101Z" fill="#2d2e32"></path></svg>