<svg id="visual" viewBox="0 0 900 300" width="900" height="300" xmlns="http://www.w3.org/2000/svg" xmlns:xlink="http://www.w3.org/1999/xlink" version="1.1"><rect x="0" y="0" width="900" height="300" fill="#141419"></rect><path d="M0 72L25 78C50 84 100 96 150 102.8C200 109.7 250 111.3 300 109.7C350 108 400 103 450 93.2C500 83.3 550 68.7 600 67.8C650 67 700 80 750 84.3C800 88.7 850 84.3 875 82.2L900 80L900 301L875 301C850 301 800 301 750 301C700 301 650 301 600 301C550 301 500 301 450 301C400 301 350 301 300 301C250 301 200 301 150 301C100 301 50 301 25 301L0 301Z" fill="#b9ece0"></path><path d="M0 143L25 144.5C50 146 100 149 150 149.5C200 150 250 148 300 139.5C350 131 400 116 450 109.8C500 103.7 550 106.3 600 109.3C650 112.3 700 115.7 750 121.3C800 127 850 135 875 139L900 143L900 301L875 301C850 301 800 301 750 301C700 301 650 301 600 301C550 301 500 301 450 301C400 301 350 301 300 301C250 301 200 301 150 301C100 301 50 301 25 301L0 301Z" fill="#85b0b4"></path><path d="M0 175L25 177.8C50 180.7 100 186.3 150 188.5C200 190.7 250 189.3 300 187.8C350 186.3 400 184.7 450 183.3C500 182 550 181 600 173.3C650 165.7 700 151.3 750 146C800 140.7 850 144.3 875 146.2L900 148L900 301L875 301C850 301 800 301 750 301C700 301 650 301 600 301C550 301 500 301 450 301C400 301 350 301 300 301C250 301 200 301 150 301C100 301 50 301 25 301L0 301Z" fill="#5d7681"></path><path d="M0 218L25 214.3C50 210.7 100 203.3 150 203.7C200 204 250 212 300 216.5C350 221 400 222 450 221.5C500 221 550 219 600 217C650 215 700 213 750 208.5C800 204 850 197 875 193.5L900 190L900 301L875 301C850 301 800 301 750 301C700 301 650 301 600 301C550 301 500 301 450 301C400 301 350 301 300 301C250 301 200 301 150 301C100 301 50 301 25 301L0 301Z" fill="#39414b"></path><path d="M0 264L25 261.8C50 259.7 100 255.3 150 252.2C200 249 250 247 300 243.7C350 240.3 400 235.7 450 236C500 236.3 550 241.7 600 240.5C650 239.3 700 231.7 750 228.7C800 225.7 850 227.3 875 228.2L900 229L900 301L875 301C850 301 800 301 750 301C700 301 650 301 600 301C550 301 500 301 450 301C400 301 350 301 300 301C250 301 200 301 150 301C100 301 50 301 25 301L0 301Z" fill="#141419"></path></svg>