<svg id="visual" viewBox="0 0 900 200" width="900" height="200" xmlns="http://www.w3.org/2000/svg" xmlns:xlink="http://www.w3.org/1999/xlink" version="1.1"><rect x="0" y="0" width="900" height="200" fill="#141419"></rect><path d="M0 42L25 43.3C50 44.7 100 47.3 150 47.3C200 47.3 250 44.7 300 47.3C350 50 400 58 450 55.7C500 53.3 550 40.7 600 32.7C650 24.7 700 21.3 750 25.7C800 30 850 42 875 48L900 54L900 201L875 201C850 201 800 201 750 201C700 201 650 201 600 201C550 201 500 201 450 201C400 201 350 201 300 201C250 201 200 201 150 201C100 201 50 201 25 201L0 201Z" fill="#b9ece0"></path><path d="M0 37L25 42.8C50 48.7 100 60.3 150 66.2C200 72 250 72 300 64.8C350 57.7 400 43.3 450 45.3C500 47.3 550 65.7 600 70.2C650 74.7 700 65.3 750 60.7C800 56 850 56 875 56L900 56L900 201L875 201C850 201 800 201 750 201C700 201 650 201 600 201C550 201 500 201 450 201C400 201 350 201 300 201C250 201 200 201 150 201C100 201 50 201 25 201L0 201Z" fill="#9ac9c7"></path><path d="M0 98L25 96C50 94 100 90 150 88C200 86 250 86 300 85C350 84 400 82 450 75.8C500 69.7 550 59.3 600 55.5C650 51.7 700 54.3 750 58.5C800 62.7 850 68.3 875 71.2L900 74L900 201L875 201C850 201 800 201 750 201C700 201 650 201 600 201C550 201 500 201 450 201C400 201 350 201 300 201C250 201 200 201 150 201C100 201 50 201 25 201L0 201Z" fill="#7fa7ad"></path><path d="M0 99L25 96.3C50 93.7 100 88.3 150 85.2C200 82 250 81 300 81.3C350 81.7 400 83.3 450 88.5C500 93.7 550 102.3 600 104C650 105.7 700 100.3 750 97.8C800 95.3 850 95.7 875 95.8L900 96L900 201L875 201C850 201 800 201 750 201C700 201 650 201 600 201C550 201 500 201 450 201C400 201 350 201 300 201C250 201 200 201 150 201C100 201 50 201 25 201L0 201Z" fill="#688690"></path><path d="M0 120L25 119.2C50 118.3 100 116.7 150 115C200 113.3 250 111.7 300 116.3C350 121 400 132 450 132.3C500 132.7 550 122.3 600 119.3C650 116.3 700 120.7 750 118.8C800 117 850 109 875 105L900 101L900 201L875 201C850 201 800 201 750 201C700 201 650 201 600 201C550 201 500 201 450 201C400 201 350 201 300 201C250 201 200 201 150 201C100 201 50 201 25 201L0 201Z" fill="#536672"></path><path d="M0 111L25 118.7C50 126.3 100 141.7 150 149.5C200 157.3 250 157.7 300 155.7C350 153.7 400 149.3 450 145.2C500 141 550 137 600 132C650 127 700 121 750 126C800 131 850 147 875 155L900 163L900 201L875 201C850 201 800 201 750 201C700 201 650 201 600 201C550 201 500 201 450 201C400 201 350 201 300 201C250 201 200 201 150 201C100 201 50 201 25 201L0 201Z" fill="#3e4953"></path><path d="M0 133L25 138.7C50 144.3 100 155.7 150 159.8C200 164 250 161 300 157.3C350 153.7 400 149.3 450 152.8C500 156.3 550 167.7 600 168.5C650 169.3 700 159.7 750 156.7C800 153.7 850 157.3 875 159.2L900 161L900 201L875 201C850 201 800 201 750 201C700 201 650 201 600 201C550 201 500 201 450 201C400 201 350 201 300 201C250 201 200 201 150 201C100 201 50 201 25 201L0 201Z" fill="#292d35"></path><path d="M0 189L25 189C50 189 100 189 150 187.2C200 185.3 250 181.7 300 177.5C350 173.3 400 168.7 450 170.3C500 172 550 180 600 181.8C650 183.7 700 179.3 750 179.8C800 180.3 850 185.7 875 188.3L900 191L900 201L875 201C850 201 800 201 750 201C700 201 650 201 600 201C550 201 500 201 450 201C400 201 350 201 300 201C250 201 200 201 150 201C100 201 50 201 25 201L0 201Z" fill="#141419"></path></svg>