<svg id="visual" viewBox="0 0 900 300" width="900" height="300" xmlns="http://www.w3.org/2000/svg" xmlns:xlink="http://www.w3.org/1999/xlink" version="1.1"><rect x="0" y="0" width="900" height="300" fill="#141419"></rect><path d="M0 224L21.5 228.2C43 232.3 86 240.7 128.8 239.5C171.7 238.3 214.3 227.7 257.2 226.8C300 226 343 235 385.8 236.3C428.7 237.7 471.3 231.3 514.2 232.8C557 234.3 600 243.7 642.8 247.3C685.7 251 728.3 249 771.2 245.7C814 242.3 857 237.7 878.5 235.3L900 233L900 301L878.5 301C857 301 814 301 771.2 301C728.3 301 685.7 301 642.8 301C600 301 557 301 514.2 301C471.3 301 428.7 301 385.8 301C343 301 300 301 257.2 301C214.3 301 171.7 301 128.8 301C86 301 43 301 21.5 301L0 301Z" fill="#b9ece0"></path><path d="M0 238L21.5 242.7C43 247.3 86 256.7 128.8 258.5C171.7 260.3 214.3 254.7 257.2 250.5C300 246.3 343 243.7 385.8 243.5C428.7 243.3 471.3 245.7 514.2 251C557 256.3 600 264.7 642.8 269.7C685.7 274.7 728.3 276.3 771.2 272.7C814 269 857 260 878.5 255.5L900 251L900 301L878.5 301C857 301 814 301 771.2 301C728.3 301 685.7 301 642.8 301C600 301 557 301 514.2 301C471.3 301 428.7 301 385.8 301C343 301 300 301 257.2 301C214.3 301 171.7 301 128.8 301C86 301 43 301 21.5 301L0 301Z" fill="#6c8690"></path><path d="M0 263L21.5 262.5C43 262 86 261 128.8 266C171.7 271 214.3 282 257.2 286.2C300 290.3 343 287.7 385.8 283.8C428.7 280 471.3 275 514.2 271.5C557 268 600 266 642.8 265.7C685.7 265.3 728.3 266.7 771.2 268.7C814 270.7 857 273.3 878.5 274.7L900 276L900 301L878.5 301C857 301 814 301 771.2 301C728.3 301 685.7 301 642.8 301C600 301 557 301 514.2 301C471.3 301 428.7 301 385.8 301C343 301 300 301 257.2 301C214.3 301 171.7 301 128.8 301C86 301 43 301 21.5 301L0 301Z" fill="#2d2e32"></path></svg>