<svg id="visual" viewBox="0 0 900 200" width="900" height="200" xmlns="http://www.w3.org/2000/svg" xmlns:xlink="http://www.w3.org/1999/xlink" version="1.1"><path d="M0 35L15 33C30 31 60 27 90 21.2C120 15.3 150 7.7 180 4.3C210 1 240 2 270 5.2C300 8.3 330 13.7 360 17.3C390 21 420 23 450 21C480 19 510 13 540 14.3C570 15.7 600 24.3 630 23.7C660 23 690 13 720 11.3C750 9.7 780 16.3 810 15.8C840 15.3 870 7.7 885 3.8L900 0L900 0L885 0C870 0 840 0 810 0C780 0 750 0 720 0C690 0 660 0 630 0C600 0 570 0 540 0C510 0 480 0 450 0C420 0 390 0 360 0C330 0 300 0 270 0C240 0 210 0 180 0C150 0 120 0 90 0C60 0 30 0 15 0L0 0Z" fill="#141419"></path><path d="M0 69L15 69C30 69 60 69 90 58.3C120 47.7 150 26.3 180 22C210 17.7 240 30.3 270 36.3C300 42.3 330 41.7 360 44C390 46.3 420 51.7 450 51.7C480 51.7 510 46.3 540 43.3C570 40.3 600 39.7 630 37C660 34.3 690 29.7 720 34C750 38.3 780 51.7 810 53C840 54.3 870 43.7 885 38.3L900 33L900 0L885 3.5C870 7 840 14 810 14.2C780 14.3 750 7.7 720 9.3C690 11 660 21 630 21.7C600 22.3 570 13.7 540 12.3C510 11 480 17 450 19C420 21 390 19 360 15.3C330 11.7 300 6.3 270 3.5C240 0.7 210 0.3 180 3.7C150 7 120 14 90 19.5C60 25 30 29 15 31L0 33Z" fill="#19191e"></path><path d="M0 107L15 102.7C30 98.3 60 89.7 90 76C120 62.3 150 43.7 180 43C210 42.3 240 59.7 270 68.7C300 77.7 330 78.3 360 76C390 73.7 420 68.3 450 63.7C480 59 510 55 540 55C570 55 600 59 630 57C660 55 690 47 720 49.7C750 52.3 780 65.7 810 70.3C840 75 870 71 885 69L900 67L900 31L885 36.3C870 41.7 840 52.3 810 51C780 49.7 750 36.3 720 32C690 27.7 660 32.3 630 35C600 37.7 570 38.3 540 41.3C510 44.3 480 49.7 450 49.7C420 49.7 390 44.3 360 42C330 39.7 300 40.3 270 34.3C240 28.3 210 15.7 180 20C150 24.3 120 45.7 90 56.3C60 67 30 67 15 67L0 67Z" fill="#1e1e23"></path><path d="M0 109L15 109C30 109 60 109 90 109.3C120 109.7 150 110.3 180 118.7C210 127 240 143 270 146.3C300 149.7 330 140.3 360 141.3C390 142.3 420 153.7 450 154.7C480 155.7 510 146.3 540 136.7C570 127 600 117 630 107C660 97 690 87 720 94C750 101 780 125 810 129.3C840 133.7 870 118.3 885 110.7L900 103L900 65L885 67C870 69 840 73 810 68.3C780 63.7 750 50.3 720 47.7C690 45 660 53 630 55C600 57 570 53 540 53C510 53 480 57 450 61.7C420 66.3 390 71.7 360 74C330 76.3 300 75.7 270 66.7C240 57.7 210 40.3 180 41C150 41.7 120 60.3 90 74C60 87.7 30 96.3 15 100.7L0 105Z" fill="#232428"></path><path d="M0 167L15 166C30 165 60 163 90 167.3C120 171.7 150 182.3 180 185.3C210 188.3 240 183.7 270 178C300 172.3 330 165.7 360 167C390 168.3 420 177.7 450 176.3C480 175 510 163 540 154.7C570 146.3 600 141.7 630 137C660 132.3 690 127.7 720 136C750 144.3 780 165.7 810 171.7C840 177.7 870 168.3 885 163.7L900 159L900 101L885 108.7C870 116.3 840 131.7 810 127.3C780 123 750 99 720 92C690 85 660 95 630 105C600 115 570 125 540 134.7C510 144.3 480 153.7 450 152.7C420 151.7 390 140.3 360 139.3C330 138.3 300 147.7 270 144.3C240 141 210 125 180 116.7C150 108.3 120 107.7 90 107.3C60 107 30 107 15 107L0 107Z" fill="#28292d"></path><path d="M0 201L15 201C30 201 60 201 90 201C120 201 150 201 180 201C210 201 240 201 270 201C300 201 330 201 360 201C390 201 420 201 450 201C480 201 510 201 540 201C570 201 600 201 630 201C660 201 690 201 720 201C750 201 780 201 810 201C840 201 870 201 885 201L900 201L900 157L885 161.7C870 166.3 840 175.7 810 169.7C780 163.7 750 142.3 720 134C690 125.7 660 130.3 630 135C600 139.7 570 144.3 540 152.7C510 161 480 173 450 174.3C420 175.7 390 166.3 360 165C330 163.7 300 170.3 270 176C240 181.7 210 186.3 180 183.3C150 180.3 120 169.7 90 165.3C60 161 30 163 15 164L0 165Z" fill="#2d2e32"></path></svg>