<svg id="visual" viewBox="0 0 900 200" width="900" height="200" xmlns="http://www.w3.org/2000/svg" xmlns:xlink="http://www.w3.org/1999/xlink" version="1.1"><rect x="0" y="0" width="900" height="200" fill="#141419"></rect><path d="M0 101L37.5 103.3C75 105.7 150 110.3 225 111.7C300 113 375 111 450 108.7C525 106.3 600 103.7 675 101.7C750 99.7 825 98.3 862.5 97.7L900 97L900 201L862.5 201C825 201 750 201 675 201C600 201 525 201 450 201C375 201 300 201 225 201C150 201 75 201 37.5 201L0 201Z" fill="#141419"></path><path d="M0 90L37.5 92.7C75 95.3 150 100.7 225 95.3C300 90 375 74 450 76.3C525 78.7 600 99.3 675 103.3C750 107.3 825 94.7 862.5 88.3L900 82L900 201L862.5 201C825 201 750 201 675 201C600 201 525 201 450 201C375 201 300 201 225 201C150 201 75 201 37.5 201L0 201Z" fill="#485762"></path><path d="M0 137L37.5 129.2C75 121.3 150 105.7 225 95.5C300 85.3 375 80.7 450 87C525 93.3 600 110.7 675 119.3C750 128 825 128 862.5 128L900 128L900 201L862.5 201C825 201 750 201 675 201C600 201 525 201 450 201C375 201 300 201 225 201C150 201 75 201 37.5 201L0 201Z" fill="#7fa7ad"></path><path d="M0 122L37.5 120C75 118 150 114 225 119.3C300 124.7 375 139.3 450 139.2C525 139 600 124 675 119.8C750 115.7 825 122.3 862.5 125.7L900 129L900 201L862.5 201C825 201 750 201 675 201C600 201 525 201 450 201C375 201 300 201 225 201C150 201 75 201 37.5 201L0 201Z" fill="#b9ece0"></path><path d="M0 150L37.5 150.3C75 150.7 150 151.3 225 152.7C300 154 375 156 450 149.3C525 142.7 600 127.3 675 120.7C750 114 825 116 862.5 117L900 118L900 201L862.5 201C825 201 750 201 675 201C600 201 525 201 450 201C375 201 300 201 225 201C150 201 75 201 37.5 201L0 201Z" fill="#b9ece0"></path><path d="M0 157L37.5 153.2C75 149.3 150 141.7 225 140.3C300 139 375 144 450 143.7C525 143.3 600 137.7 675 137.3C750 137 825 142 862.5 144.5L900 147L900 201L862.5 201C825 201 750 201 675 201C600 201 525 201 450 201C375 201 300 201 225 201C150 201 75 201 37.5 201L0 201Z" fill="#7fa7ad"></path><path d="M0 175L37.5 177.2C75 179.3 150 183.7 225 185.7C300 187.7 375 187.3 450 184.3C525 181.3 600 175.7 675 170.5C750 165.3 825 160.7 862.5 158.3L900 156L900 201L862.5 201C825 201 750 201 675 201C600 201 525 201 450 201C375 201 300 201 225 201C150 201 75 201 37.5 201L0 201Z" fill="#485762"></path><path d="M0 190L37.5 190.2C75 190.3 150 190.7 225 191.7C300 192.7 375 194.3 450 191C525 187.7 600 179.3 675 178.3C750 177.3 825 183.7 862.5 186.8L900 190L900 201L862.5 201C825 201 750 201 675 201C600 201 525 201 450 201C375 201 300 201 225 201C150 201 75 201 37.5 201L0 201Z" fill="#141419"></path></svg>