<svg id="visual" viewBox="0 0 900 100" width="900" height="100" xmlns="http://www.w3.org/2000/svg" xmlns:xlink="http://www.w3.org/1999/xlink" version="1.1"><rect x="0" y="0" width="900" height="100" fill="#141419"></rect><path d="M0 32L25 33.2C50 34.3 100 36.7 150 42.8C200 49 250 59 300 58C350 57 400 45 450 34.8C500 24.7 550 16.3 600 13.8C650 11.3 700 14.7 750 23.7C800 32.7 850 47.3 875 54.7L900 62L900 101L875 101C850 101 800 101 750 101C700 101 650 101 600 101C550 101 500 101 450 101C400 101 350 101 300 101C250 101 200 101 150 101C100 101 50 101 25 101L0 101Z" fill="#2d2e32"></path><path d="M0 57L25 57.8C50 58.7 100 60.3 150 58.8C200 57.3 250 52.7 300 52.5C350 52.3 400 56.7 450 63C500 69.3 550 77.7 600 80.2C650 82.7 700 79.3 750 71.8C800 64.3 850 52.7 875 46.8L900 41L900 101L875 101C850 101 800 101 750 101C700 101 650 101 600 101C550 101 500 101 450 101C400 101 350 101 300 101C250 101 200 101 150 101C100 101 50 101 25 101L0 101Z" fill="#202125"></path><path d="M0 66L25 65.3C50 64.7 100 63.3 150 62.2C200 61 250 60 300 61.5C350 63 400 67 450 70.2C500 73.3 550 75.7 600 80C650 84.3 700 90.7 750 94C800 97.3 850 97.7 875 97.8L900 98L900 101L875 101C850 101 800 101 750 101C700 101 650 101 600 101C550 101 500 101 450 101C400 101 350 101 300 101C250 101 200 101 150 101C100 101 50 101 25 101L0 101Z" fill="#141419"></path></svg>