<svg id="visual" viewBox="0 0 900 200" width="900" height="200" xmlns="http://www.w3.org/2000/svg" xmlns:xlink="http://www.w3.org/1999/xlink" version="1.1"><rect x="0" y="0" width="900" height="200" fill="#141419"></rect><path d="M0 43L21.5 39.7C43 36.3 86 29.7 128.8 29.8C171.7 30 214.3 37 257.2 36.2C300 35.3 343 26.7 385.8 28.3C428.7 30 471.3 42 514.2 50.3C557 58.7 600 63.3 642.8 55.2C685.7 47 728.3 26 771.2 23.3C814 20.7 857 36.3 878.5 44.2L900 52L900 201L878.5 201C857 201 814 201 771.2 201C728.3 201 685.7 201 642.8 201C600 201 557 201 514.2 201C471.3 201 428.7 201 385.8 201C343 201 300 201 257.2 201C214.3 201 171.7 201 128.8 201C86 201 43 201 21.5 201L0 201Z" fill="#b9ece0"></path><path d="M0 59L21.5 63.7C43 68.3 86 77.7 128.8 77.8C171.7 78 214.3 69 257.2 68.5C300 68 343 76 385.8 84C428.7 92 471.3 100 514.2 96C557 92 600 76 642.8 70.3C685.7 64.7 728.3 69.3 771.2 68.5C814 67.7 857 61.3 878.5 58.2L900 55L900 201L878.5 201C857 201 814 201 771.2 201C728.3 201 685.7 201 642.8 201C600 201 557 201 514.2 201C471.3 201 428.7 201 385.8 201C343 201 300 201 257.2 201C214.3 201 171.7 201 128.8 201C86 201 43 201 21.5 201L0 201Z" fill="#85b0b4"></path><path d="M0 66L21.5 74.5C43 83 86 100 128.8 105.3C171.7 110.7 214.3 104.3 257.2 98.7C300 93 343 88 385.8 85.3C428.7 82.7 471.3 82.3 514.2 84.3C557 86.3 600 90.7 642.8 95.2C685.7 99.7 728.3 104.3 771.2 102C814 99.7 857 90.3 878.5 85.7L900 81L900 201L878.5 201C857 201 814 201 771.2 201C728.3 201 685.7 201 642.8 201C600 201 557 201 514.2 201C471.3 201 428.7 201 385.8 201C343 201 300 201 257.2 201C214.3 201 171.7 201 128.8 201C86 201 43 201 21.5 201L0 201Z" fill="#5d7681"></path><path d="M0 121L21.5 127.2C43 133.3 86 145.7 128.8 142.5C171.7 139.3 214.3 120.7 257.2 115.8C300 111 343 120 385.8 122.7C428.7 125.3 471.3 121.7 514.2 123C557 124.3 600 130.7 642.8 130.7C685.7 130.7 728.3 124.3 771.2 120.8C814 117.3 857 116.7 878.5 116.3L900 116L900 201L878.5 201C857 201 814 201 771.2 201C728.3 201 685.7 201 642.8 201C600 201 557 201 514.2 201C471.3 201 428.7 201 385.8 201C343 201 300 201 257.2 201C214.3 201 171.7 201 128.8 201C86 201 43 201 21.5 201L0 201Z" fill="#39414b"></path><path d="M0 176L21.5 175.8C43 175.7 86 175.3 128.8 168.8C171.7 162.3 214.3 149.7 257.2 153.3C300 157 343 177 385.8 181C428.7 185 471.3 173 514.2 165.5C557 158 600 155 642.8 161C685.7 167 728.3 182 771.2 186C814 190 857 183 878.5 179.5L900 176L900 201L878.5 201C857 201 814 201 771.2 201C728.3 201 685.7 201 642.8 201C600 201 557 201 514.2 201C471.3 201 428.7 201 385.8 201C343 201 300 201 257.2 201C214.3 201 171.7 201 128.8 201C86 201 43 201 21.5 201L0 201Z" fill="#141419"></path></svg>