<svg id="visual" viewBox="0 0 900 200" width="900" height="200" xmlns="http://www.w3.org/2000/svg" xmlns:xlink="http://www.w3.org/1999/xlink" version="1.1"><rect x="0" y="0" width="900" height="200" fill="#141419"></rect><path d="M0 59L21.5 65.5C43 72 86 85 128.8 83.3C171.7 81.7 214.3 65.3 257.2 61.8C300 58.3 343 67.7 385.8 66.5C428.7 65.3 471.3 53.7 514.2 54.8C557 56 600 70 642.8 75.5C685.7 81 728.3 78 771.2 79C814 80 857 85 878.5 87.5L900 90L900 201L878.5 201C857 201 814 201 771.2 201C728.3 201 685.7 201 642.8 201C600 201 557 201 514.2 201C471.3 201 428.7 201 385.8 201C343 201 300 201 257.2 201C214.3 201 171.7 201 128.8 201C86 201 43 201 21.5 201L0 201Z" fill="#b9ece0"></path><path d="M0 95L21.5 96.5C43 98 86 101 128.8 98.2C171.7 95.3 214.3 86.7 257.2 79.7C300 72.7 343 67.3 385.8 74C428.7 80.7 471.3 99.3 514.2 102C557 104.7 600 91.3 642.8 89.8C685.7 88.3 728.3 98.7 771.2 97.5C814 96.3 857 83.7 878.5 77.3L900 71L900 201L878.5 201C857 201 814 201 771.2 201C728.3 201 685.7 201 642.8 201C600 201 557 201 514.2 201C471.3 201 428.7 201 385.8 201C343 201 300 201 257.2 201C214.3 201 171.7 201 128.8 201C86 201 43 201 21.5 201L0 201Z" fill="#8eb8bb"></path><path d="M0 120L21.5 122.2C43 124.3 86 128.7 128.8 126.5C171.7 124.3 214.3 115.7 257.2 114C300 112.3 343 117.7 385.8 119.5C428.7 121.3 471.3 119.7 514.2 122.5C557 125.3 600 132.7 642.8 133.3C685.7 134 728.3 128 771.2 123.8C814 119.7 857 117.3 878.5 116.2L900 115L900 201L878.5 201C857 201 814 201 771.2 201C728.3 201 685.7 201 642.8 201C600 201 557 201 514.2 201C471.3 201 428.7 201 385.8 201C343 201 300 201 257.2 201C214.3 201 171.7 201 128.8 201C86 201 43 201 21.5 201L0 201Z" fill="#6c8690"></path><path d="M0 161L21.5 155.5C43 150 86 139 128.8 132.5C171.7 126 214.3 124 257.2 128.2C300 132.3 343 142.7 385.8 144.2C428.7 145.7 471.3 138.3 514.2 133.5C557 128.7 600 126.3 642.8 128.5C685.7 130.7 728.3 137.3 771.2 140.5C814 143.7 857 143.3 878.5 143.2L900 143L900 201L878.5 201C857 201 814 201 771.2 201C728.3 201 685.7 201 642.8 201C600 201 557 201 514.2 201C471.3 201 428.7 201 385.8 201C343 201 300 201 257.2 201C214.3 201 171.7 201 128.8 201C86 201 43 201 21.5 201L0 201Z" fill="#4e5761"></path><path d="M0 173L21.5 171.7C43 170.3 86 167.7 128.8 164.7C171.7 161.7 214.3 158.3 257.2 157.2C300 156 343 157 385.8 160.3C428.7 163.7 471.3 169.3 514.2 172.2C557 175 600 175 642.8 171.8C685.7 168.7 728.3 162.3 771.2 158.2C814 154 857 152 878.5 151L900 150L900 201L878.5 201C857 201 814 201 771.2 201C728.3 201 685.7 201 642.8 201C600 201 557 201 514.2 201C471.3 201 428.7 201 385.8 201C343 201 300 201 257.2 201C214.3 201 171.7 201 128.8 201C86 201 43 201 21.5 201L0 201Z" fill="#2d2e32"></path></svg>