<svg id="visual" viewBox="0 0 900 200" width="900" height="200" xmlns="http://www.w3.org/2000/svg" xmlns:xlink="http://www.w3.org/1999/xlink" version="1.1"><rect x="0" y="0" width="900" height="200" fill="#141419"></rect><path d="M0 8L16.7 12.7C33.3 17.3 66.7 26.7 100 33.7C133.3 40.7 166.7 45.3 200 44.3C233.3 43.3 266.7 36.7 300 41.7C333.3 46.7 366.7 63.3 400 60.7C433.3 58 466.7 36 500 29.3C533.3 22.7 566.7 31.3 600 42.8C633.3 54.3 666.7 68.7 700 70.8C733.3 73 766.7 63 800 49.2C833.3 35.3 866.7 17.7 883.3 8.8L900 0L900 201L883.3 201C866.7 201 833.3 201 800 201C766.7 201 733.3 201 700 201C666.7 201 633.3 201 600 201C566.7 201 533.3 201 500 201C466.7 201 433.3 201 400 201C366.7 201 333.3 201 300 201C266.7 201 233.3 201 200 201C166.7 201 133.3 201 100 201C66.7 201 33.3 201 16.7 201L0 201Z" fill="#b9ece0"></path><path d="M0 50L16.7 48.8C33.3 47.7 66.7 45.3 100 45.2C133.3 45 166.7 47 200 53.8C233.3 60.7 266.7 72.3 300 75.2C333.3 78 366.7 72 400 76.3C433.3 80.7 466.7 95.3 500 102C533.3 108.7 566.7 107.3 600 108C633.3 108.7 666.7 111.3 700 103.8C733.3 96.3 766.7 78.7 800 68.5C833.3 58.3 866.7 55.7 883.3 54.3L900 53L900 201L883.3 201C866.7 201 833.3 201 800 201C766.7 201 733.3 201 700 201C666.7 201 633.3 201 600 201C566.7 201 533.3 201 500 201C466.7 201 433.3 201 400 201C366.7 201 333.3 201 300 201C266.7 201 233.3 201 200 201C166.7 201 133.3 201 100 201C66.7 201 33.3 201 16.7 201L0 201Z" fill="#85b0b4"></path><path d="M0 86L16.7 89.3C33.3 92.7 66.7 99.3 100 105.2C133.3 111 166.7 116 200 119.3C233.3 122.7 266.7 124.3 300 118C333.3 111.7 366.7 97.3 400 91.5C433.3 85.7 466.7 88.3 500 91.2C533.3 94 566.7 97 600 97.3C633.3 97.7 666.7 95.3 700 102.5C733.3 109.7 766.7 126.3 800 124.2C833.3 122 866.7 101 883.3 90.5L900 80L900 201L883.3 201C866.7 201 833.3 201 800 201C766.7 201 733.3 201 700 201C666.7 201 633.3 201 600 201C566.7 201 533.3 201 500 201C466.7 201 433.3 201 400 201C366.7 201 333.3 201 300 201C266.7 201 233.3 201 200 201C166.7 201 133.3 201 100 201C66.7 201 33.3 201 16.7 201L0 201Z" fill="#5d7681"></path><path d="M0 139L16.7 138C33.3 137 66.7 135 100 131.8C133.3 128.7 166.7 124.3 200 122.5C233.3 120.7 266.7 121.3 300 128.3C333.3 135.3 366.7 148.7 400 149.7C433.3 150.7 466.7 139.3 500 136C533.3 132.7 566.7 137.3 600 138.3C633.3 139.3 666.7 136.7 700 136.3C733.3 136 766.7 138 800 140.8C833.3 143.7 866.7 147.3 883.3 149.2L900 151L900 201L883.3 201C866.7 201 833.3 201 800 201C766.7 201 733.3 201 700 201C666.7 201 633.3 201 600 201C566.7 201 533.3 201 500 201C466.7 201 433.3 201 400 201C366.7 201 333.3 201 300 201C266.7 201 233.3 201 200 201C166.7 201 133.3 201 100 201C66.7 201 33.3 201 16.7 201L0 201Z" fill="#39414b"></path><path d="M0 196L16.7 194.5C33.3 193 66.7 190 100 190.3C133.3 190.7 166.7 194.3 200 188.2C233.3 182 266.7 166 300 164C333.3 162 366.7 174 400 173.5C433.3 173 466.7 160 500 161.7C533.3 163.3 566.7 179.7 600 186.7C633.3 193.7 666.7 191.3 700 187C733.3 182.7 766.7 176.3 800 167.3C833.3 158.3 866.7 146.7 883.3 140.8L900 135L900 201L883.3 201C866.7 201 833.3 201 800 201C766.7 201 733.3 201 700 201C666.7 201 633.3 201 600 201C566.7 201 533.3 201 500 201C466.7 201 433.3 201 400 201C366.7 201 333.3 201 300 201C266.7 201 233.3 201 200 201C166.7 201 133.3 201 100 201C66.7 201 33.3 201 16.7 201L0 201Z" fill="#141419"></path></svg>