<svg id="visual" viewBox="0 0 900 100" width="900" height="100" xmlns="http://www.w3.org/2000/svg" xmlns:xlink="http://www.w3.org/1999/xlink" version="1.1"><rect x="0" y="0" width="900" height="100" fill="#141419"></rect><path d="M0 18L25 19.3C50 20.7 100 23.3 150 25.7C200 28 250 30 300 34.2C350 38.3 400 44.7 450 44.7C500 44.7 550 38.3 600 36.3C650 34.3 700 36.7 750 33.8C800 31 850 23 875 19L900 15L900 101L875 101C850 101 800 101 750 101C700 101 650 101 600 101C550 101 500 101 450 101C400 101 350 101 300 101C250 101 200 101 150 101C100 101 50 101 25 101L0 101Z" fill="#b9ece0"></path><path d="M0 51L25 54.5C50 58 100 65 150 67.2C200 69.3 250 66.7 300 63.7C350 60.7 400 57.3 450 53.5C500 49.7 550 45.3 600 46.5C650 47.7 700 54.3 750 60.8C800 67.3 850 73.7 875 76.8L900 80L900 101L875 101C850 101 800 101 750 101C700 101 650 101 600 101C550 101 500 101 450 101C400 101 350 101 300 101C250 101 200 101 150 101C100 101 50 101 25 101L0 101Z" fill="#6c8690"></path><path d="M0 92L25 89.7C50 87.3 100 82.7 150 82C200 81.3 250 84.7 300 82.2C350 79.7 400 71.3 450 70.7C500 70 550 77 600 80.8C650 84.7 700 85.3 750 85.3C800 85.3 850 84.7 875 84.3L900 84L900 101L875 101C850 101 800 101 750 101C700 101 650 101 600 101C550 101 500 101 450 101C400 101 350 101 300 101C250 101 200 101 150 101C100 101 50 101 25 101L0 101Z" fill="#2d2e32"></path></svg>