<svg id="visual" viewBox="0 0 900 100" width="900" height="100" xmlns="http://www.w3.org/2000/svg" xmlns:xlink="http://www.w3.org/1999/xlink" version="1.1"><rect x="0" y="0" width="900" height="100" fill="#141419"></rect><path d="M0 4L16.7 6.3C33.3 8.7 66.7 13.3 100 16.7C133.3 20 166.7 22 200 21.3C233.3 20.7 266.7 17.3 300 19.8C333.3 22.3 366.7 30.7 400 29.3C433.3 28 466.7 17 500 13.7C533.3 10.3 566.7 14.7 600 20.5C633.3 26.3 666.7 33.7 700 34.8C733.3 36 766.7 31 800 24.2C833.3 17.3 866.7 8.7 883.3 4.3L900 0L900 101L883.3 101C866.7 101 833.3 101 800 101C766.7 101 733.3 101 700 101C666.7 101 633.3 101 600 101C566.7 101 533.3 101 500 101C466.7 101 433.3 101 400 101C366.7 101 333.3 101 300 101C266.7 101 233.3 101 200 101C166.7 101 133.3 101 100 101C66.7 101 33.3 101 16.7 101L0 101Z" fill="#b9ece0"></path><path d="M0 24L16.7 23.5C33.3 23 66.7 22 100 22C133.3 22 166.7 23 200 26.5C233.3 30 266.7 36 300 37.5C333.3 39 366.7 36 400 38.2C433.3 40.3 466.7 47.7 500 51C533.3 54.3 566.7 53.7 600 54C633.3 54.3 666.7 55.7 700 51.8C733.3 48 766.7 39 800 33.8C833.3 28.7 866.7 27.3 883.3 26.7L900 26L900 101L883.3 101C866.7 101 833.3 101 800 101C766.7 101 733.3 101 700 101C666.7 101 633.3 101 600 101C566.7 101 533.3 101 500 101C466.7 101 433.3 101 400 101C366.7 101 333.3 101 300 101C266.7 101 233.3 101 200 101C166.7 101 133.3 101 100 101C66.7 101 33.3 101 16.7 101L0 101Z" fill="#85b0b4"></path><path d="M0 43L16.7 44.5C33.3 46 66.7 49 100 51.8C133.3 54.7 166.7 57.3 200 59.2C233.3 61 266.7 62 300 58.8C333.3 55.7 366.7 48.3 400 45.3C433.3 42.3 466.7 43.7 500 45.2C533.3 46.7 566.7 48.3 600 48.5C633.3 48.7 666.7 47.3 700 50.8C733.3 54.3 766.7 62.7 800 61.7C833.3 60.7 866.7 50.3 883.3 45.2L900 40L900 101L883.3 101C866.7 101 833.3 101 800 101C766.7 101 733.3 101 700 101C666.7 101 633.3 101 600 101C566.7 101 533.3 101 500 101C466.7 101 433.3 101 400 101C366.7 101 333.3 101 300 101C266.7 101 233.3 101 200 101C166.7 101 133.3 101 100 101C66.7 101 33.3 101 16.7 101L0 101Z" fill="#5d7681"></path><path d="M0 69L16.7 68.5C33.3 68 66.7 67 100 65.5C133.3 64 166.7 62 200 61.2C233.3 60.3 266.7 60.7 300 64C333.3 67.3 366.7 73.7 400 74C433.3 74.3 466.7 68.7 500 67C533.3 65.3 566.7 67.7 600 68.3C633.3 69 666.7 68 700 67.8C733.3 67.7 766.7 68.3 800 69.7C833.3 71 866.7 73 883.3 74L900 75L900 101L883.3 101C866.7 101 833.3 101 800 101C766.7 101 733.3 101 700 101C666.7 101 633.3 101 600 101C566.7 101 533.3 101 500 101C466.7 101 433.3 101 400 101C366.7 101 333.3 101 300 101C266.7 101 233.3 101 200 101C166.7 101 133.3 101 100 101C66.7 101 33.3 101 16.7 101L0 101Z" fill="#39414b"></path><path d="M0 98L16.7 97.2C33.3 96.3 66.7 94.7 100 94.8C133.3 95 166.7 97 200 94C233.3 91 266.7 83 300 81.8C333.3 80.7 366.7 86.3 400 86C433.3 85.7 466.7 79.3 500 80.3C533.3 81.3 566.7 89.7 600 93.2C633.3 96.7 666.7 95.3 700 93.2C733.3 91 766.7 88 800 83.5C833.3 79 866.7 73 883.3 70L900 67L900 101L883.3 101C866.7 101 833.3 101 800 101C766.7 101 733.3 101 700 101C666.7 101 633.3 101 600 101C566.7 101 533.3 101 500 101C466.7 101 433.3 101 400 101C366.7 101 333.3 101 300 101C266.7 101 233.3 101 200 101C166.7 101 133.3 101 100 101C66.7 101 33.3 101 16.7 101L0 101Z" fill="#141419"></path></svg>